<svg xmlns="http://www.w3.org/2000/svg" viewBox="0 0 400 600" width="400" height="600" role="img" aria-label="F_face03_hair03_body02">
  <defs>
    <linearGradient id="bg" x1="0" y1="0" x2="0" y2="1">
      <stop offset="0" stop-color="#0A0A0A"/>
      <stop offset="1" stop-color="#141827"/>
    </linearGradient>
    <radialGradient id="skin" cx="0.5" cy="0.4" r="0.7">
      <stop offset="0" stop-color="#D7A67A"/>
      <stop offset="1" stop-color="#8D6442"/>
    </radialGradient>
    <linearGradient id="torso" x1="0" y1="0" x2="0" y2="1">
      <stop offset="0" stop-color="#1A1F2E"/>
      <stop offset="1" stop-color="#0E1320"/>
    </linearGradient>
    <linearGradient id="grid" x1="0" y1="0" x2="1" y2="0">
      <stop offset="0" stop-color="#00F0FF" stop-opacity="0.05"/>
      <stop offset="0.5" stop-color="#00F0FF" stop-opacity="0.2"/>
      <stop offset="1" stop-color="#00F0FF" stop-opacity="0.05"/>
    </linearGradient>
  </defs>
  <rect width="400" height="600" fill="url(#bg)"/>
  <g stroke="#1E3444" stroke-width="0.4" opacity="0.6">
    <line x1="0" y1="0" x2="400" y2="0"/><line x1="0" y1="50" x2="400" y2="50"/><line x1="0" y1="100" x2="400" y2="100"/><line x1="0" y1="150" x2="400" y2="150"/><line x1="0" y1="200" x2="400" y2="200"/><line x1="0" y1="250" x2="400" y2="250"/><line x1="0" y1="300" x2="400" y2="300"/><line x1="0" y1="350" x2="400" y2="350"/><line x1="0" y1="400" x2="400" y2="400"/><line x1="0" y1="450" x2="400" y2="450"/><line x1="0" y1="500" x2="400" y2="500"/><line x1="0" y1="550" x2="400" y2="550"/>
    <line x1="0" y1="0" x2="0" y2="600"/><line x1="50" y1="0" x2="50" y2="600"/><line x1="100" y1="0" x2="100" y2="600"/><line x1="150" y1="0" x2="150" y2="600"/><line x1="200" y1="0" x2="200" y2="600"/><line x1="250" y1="0" x2="250" y2="600"/><line x1="300" y1="0" x2="300" y2="600"/><line x1="350" y1="0" x2="350" y2="600"/><line x1="400" y1="0" x2="400" y2="600"/>
  </g>
  <!-- torso -->
  <path d="M140,320 Q150,420 160,560 L240,560 Q250,420 260,320 Z" fill="url(#torso)" stroke="#2A3A55" stroke-width="1"/>
  <!-- neck -->
  <rect x="182" y="270" width="36" height="50" fill="url(#skin)" opacity="0.85"/>
  <!-- head -->
  <ellipse cx="200" cy="200" rx="46" ry="68" fill="url(#skin)" stroke="#3A2A1C" stroke-width="1"/>
  <!-- jaw accent -->
  <path d="M165,258 Q200,288 235,258" fill="none" stroke="#3A2A1C" stroke-width="1" opacity="0.8"/>
  <!-- eyes -->
  <ellipse cx="183" cy="195" rx="4" ry="2" fill="#1A1A1A"/>
  <ellipse cx="217" cy="195" rx="4" ry="2" fill="#1A1A1A"/>
  <!-- lips -->
  <path d="M190,225 Q200,232 210,225" stroke="#6B2E2E" stroke-width="2.2" fill="none"/>
  <!-- hair silhouette -->
  <path d="M155,160 Q150,190 160,220 L240,220 Q250,190 245,160 Q230,125 200,125 Q170,125 155,160 Z" fill="#201613" opacity="0.9"/>
  <!-- watermark label -->
  <rect x="0" y="560" width="400" height="40" fill="#0A0A0A" opacity="0.9"/>
  <text x="200" y="582" font-family="monospace" font-size="14" fill="#00F0FF" text-anchor="middle" letter-spacing="2">F_face03_hair03_body02</text>
  <text x="200" y="40" font-family="sans-serif" font-size="12" fill="#00F0FF" text-anchor="middle" letter-spacing="3" opacity="0.7">SOVEREIGN COMPANION // PLACEHOLDER</text>
  <text x="200" y="60" font-family="sans-serif" font-size="10" fill="#888" text-anchor="middle">FEMALE · Diamond · Pixie Cut · Slim</text>
</svg>